# xmcd
#
# Track frame offsets:
#	150
#	17815
#	35127
#	58976
#	74016
#	91788
#	112077
#	131471
#	150601
#	171715
#
# Disc length: 2509 seconds
#
# Revision: 2018473813
# Processed by: cddbd v1.5.2PL0 Copyright (c) Steve Scherf et al.
# Submitted via: EZCDAudioConverter 8.1.0.1
#
DISCID=9409cb0a
DTITLE=Trace Adkins - The King's Gift
DYEAR=2013
DGENRE=Christmas Celtic
TTITLE0=Trace Adkins - Wexford Carol
TTITLE1=Trace Adkins - Tannenbaum
TTITLE2=Trace Adkins w Emma Stevens - O' Come Emmanuel
TTITLE3=Trace Adkins - Away in a Manger
TTITLE4=Trace Adkins w The Chieftains feat Alyth McCormack - I Saw Three Ships
TTITLE5=Trace Adkins w Kevin and Lily Costner - Silent Night
TTITLE6=Trace Adkins w Sonya Isaacs - We Three Kings
TTITLE7=Trace Adkins w Kenny Aronoff - Carol of the Drum
TTITLE8=Trace Adkins w The Isaacs - Oh Holy Night
TTITLE9=Trace Adkins - What Child is This
EXTD=
EXTT0=
EXTT1=
EXTT2=
EXTT3=
EXTT4=
EXTT5=
EXTT6=
EXTT7=
EXTT8=
EXTT9=
PLAYORDER=
